<?xml version="1.0" encoding="UTF-8" standalone="no"?>
<!-- Created with Inkscape (http://www.inkscape.org/) -->

<svg
   width="122"
   height="40"
   viewBox="0 0 32.279167 10.583333"
   version="1.1"
   id="svg1"
   xmlns="http://www.w3.org/2000/svg"
   xmlns:svg="http://www.w3.org/2000/svg">
  <defs
     id="defs1" />
  <g
     id="layer1">
    <g
       id="text9"
       style="font-weight:bold;font-size:59.0574px;font-family:'Bodoni 72';-inkscape-font-specification:'Bodoni 72, Bold';opacity:1;fill:#90002e;fill-opacity:1;stroke:none;stroke-width:0;stroke-dasharray:none;stroke-dashoffset:0;stroke-opacity:0"
       aria-label="hayvue"
       transform="matrix(0.71630053,0,0,0.66450728,-16.92419,-65.80406)">
      <path
         style="font-weight:500;font-size:12.7px;font-family:Futura;-inkscape-font-specification:'Futura, Medium';opacity:1;vector-effect:non-scaling-stroke;fill:#bf6cfe;fill-opacity:1;stroke:#bb54ec;stroke-width:0.264583;stroke-dasharray:none;stroke-dashoffset:0;stroke-opacity:0;-inkscape-stroke:hairline"
         d="m 26.016158,100.27198 h 1.395264 v 4.93613 q 0.74414,-0.66972 1.64331,-0.66972 1.023193,0 1.637109,0.66352 0.520899,0.57671 0.520899,1.84175 v 3.7021 h -1.395264 v -3.57188 q 0,-0.72553 -0.260449,-1.04799 -0.254248,-0.32867 -0.824756,-0.32867 -0.731738,0 -1.029394,0.45269 -0.291455,0.45889 -0.291455,1.5751 v 2.92075 h -1.395264 z m 11.446357,4.43384 h 1.401465 v 6.03994 h -1.401465 v -0.63252 q -0.861963,0.80615 -1.854151,0.80615 -1.252636,0 -2.071191,-0.90537 -0.812353,-0.92397 -0.812353,-2.30684 0,-1.35805 0.812353,-2.26342 0.812354,-0.90537 2.033984,-0.90537 1.0542,0 1.891358,0.86816 z m -3.311426,3.00136 q 0,0.86817 0.465088,1.41387 0.47749,0.55191 1.203027,0.55191 0.775147,0 1.252637,-0.53331 0.47749,-0.5519 0.47749,-1.40146 0,-0.84956 -0.47749,-1.40147 -0.47749,-0.5395 -1.240234,-0.5395 -0.719336,0 -1.203028,0.54571 -0.47749,0.5519 -0.47749,1.36425 z m 8.489404,1.91617 -2.716113,-4.91753 h 1.618506 l 1.847949,3.47265 1.723926,-3.47265 h 1.575097 l -4.812109,9.32656 h -1.593701 z"
         id="path13" />
      <path
         style="font-style:italic;font-weight:500;font-size:16.9333px;font-family:Cochin;-inkscape-font-specification:'Cochin, Medium Italic';vector-effect:non-scaling-stroke;fill:#bf6cfe;fill-opacity:1;stroke:#bb54ec;stroke-width:0.264583;stroke-dasharray:none;stroke-dashoffset:0;stroke-opacity:0;-inkscape-stroke:hairline"
         d="m 47.901537,107.24056 q 0,-0.66039 0.237067,-1.21919 0.237066,-0.57573 0.541865,-0.98213 0.321733,-0.4064 0.626532,-0.62654 0.321733,-0.23706 0.491066,-0.23706 0.118533,0 0.118533,0.11853 0,0.0847 -0.1524,0.18627 -0.135466,0.1016 -0.304799,0.32173 -0.1524,0.2032 -0.304799,0.59267 -0.135467,0.38946 -0.135467,1.04986 0,0.79586 0.1524,1.5748 0.169333,0.77893 0.253999,1.55786 0.4064,-0.3556 0.812799,-0.69426 0.406399,-0.33867 0.745065,-0.72814 0.338666,-0.4064 0.541866,-0.8636 0.220132,-0.47413 0.220132,-1.04986 0,-0.38947 -0.118533,-0.762 -0.118533,-0.37253 -0.118533,-0.762 0,-0.23706 0.169333,-0.4064 0.186267,-0.16933 0.406399,-0.16933 0.524933,0 0.711199,0.33867 0.2032,0.32173 0.2032,1.016 0,0.35559 -0.2032,0.76199 -0.186266,0.4064 -0.491066,0.8128 -0.287866,0.38947 -0.643465,0.762 -0.338666,0.37253 -0.660399,0.6604 -0.304799,0.28787 -0.541865,0.49106 -0.220133,0.18627 -0.270933,0.23707 -0.626532,0.5588 -0.999065,0.93133 -0.372532,0.3556 -0.575732,0.57573 -0.2032,0.2032 -0.287866,0.27094 -0.06773,0.0847 -0.1016,0.0847 -0.118533,0 -0.118533,-0.2032 0,-0.1016 0.01693,-0.2032 0.01693,-0.11853 0.01693,-0.20319 0,-0.5588 -0.03387,-0.99907 -0.03387,-0.44027 -0.08467,-0.8128 -0.0508,-0.38946 -0.08467,-0.72813 -0.03387,-0.33867 -0.03387,-0.69427 z m 8.856128,-2.86172 q -0.152399,0.42333 -0.474132,1.18533 -0.304799,0.74506 -0.626532,1.54093 -0.3048,0.77893 -0.541866,1.45626 -0.220133,0.67733 -0.220133,0.9652 0,0.33867 0.1524,0.47413 0.169333,0.13547 0.474132,0.13547 0.254,0 0.558799,-0.16933 0.3048,-0.16934 0.609599,-0.44027 0.3048,-0.28787 0.592666,-0.62653 0.287866,-0.3556 0.507999,-0.7112 0.558799,-0.89747 0.914398,-1.86266 0.372532,-0.9652 0.761998,-1.94733 h 1.253065 q -0.08467,0.2032 -0.254,0.64346 -0.169333,0.44027 -0.389466,0.98213 -0.220133,0.54187 -0.457199,1.15147 -0.220133,0.59266 -0.406399,1.13453 -0.186266,0.52493 -0.3048,0.94826 -0.118533,0.4064 -0.118533,0.57574 0,0.28786 0.169333,0.37253 0.186267,0.0847 0.440266,0.0847 0.254,0 0.541866,-0.1524 0.287866,-0.16934 0.524932,-0.37254 0.237066,-0.2032 0.389466,-0.3556 0.169333,-0.16933 0.186266,-0.16933 0.08467,0 0.08467,0.0847 0,0.0169 -0.220133,0.28786 -0.220133,0.254 -0.592666,0.5588 -0.355599,0.3048 -0.863598,0.5588 -0.491066,0.23707 -1.049865,0.23707 -0.152399,0 -0.321732,-0.0508 -0.169333,-0.0508 -0.321733,-0.1524 -0.135466,-0.0847 -0.237066,-0.22013 -0.1016,-0.13547 -0.1016,-0.3048 0,-0.1016 0.118533,-0.44027 0.118533,-0.3556 0.270933,-0.762 0.1524,-0.4064 0.287866,-0.762 0.1524,-0.37253 0.2032,-0.49106 l -0.03387,-0.0339 q -0.186266,0.44027 -0.626532,0.99907 -0.423333,0.55879 -0.965198,1.04986 -0.541866,0.49107 -1.134531,0.82973 -0.575732,0.33867 -1.083731,0.33867 -0.423333,0 -0.711199,-0.2032 -0.270933,-0.2032 -0.270933,-0.64347 0,-0.3556 0.220133,-1.03293 0.237066,-0.67733 0.558799,-1.49013 0.321733,-0.8128 0.660399,-1.65946 0.355599,-0.84667 0.592665,-1.54093 z m 8.686802,0.8636 q 0,-0.23707 -0.1524,-0.3048 -0.1524,-0.0847 -0.389466,-0.0847 -0.321733,0 -0.626532,0.28787 -0.3048,0.27093 -0.558799,0.66039 -0.254,0.37254 -0.423333,0.77894 -0.169333,0.4064 -0.253999,0.66039 0.304799,-0.0508 0.711199,-0.23706 0.423332,-0.18627 0.795865,-0.4572 0.372532,-0.27093 0.626532,-0.6096 0.270933,-0.33867 0.270933,-0.69426 z m -2.844795,3.64066 q 0,0.59266 0.270933,0.96519 0.287866,0.3556 0.931331,0.3556 0.372533,0 0.660399,-0.1016 0.3048,-0.11853 0.558799,-0.28786 0.254,-0.16934 0.474132,-0.37254 0.220133,-0.2032 0.423333,-0.37253 0.08467,-0.0677 0.135466,-0.13547 0.0508,-0.0677 0.08467,-0.0677 0.118533,0 0.118533,0.0677 0,0.0847 -0.304799,0.42334 -0.3048,0.32173 -0.795866,0.67733 -0.491065,0.3556 -1.117597,0.64346 -0.609599,0.27094 -1.253065,0.27094 -0.711198,0 -1.117597,-0.37253 -0.423333,-0.38947 -0.423333,-1.10067 0,-0.54187 0.220133,-1.15146 0.220133,-0.6096 0.575732,-1.18533 0.372533,-0.59267 0.846665,-1.1176 0.474133,-0.54187 0.982132,-0.94827 0.524932,-0.42333 1.032931,-0.6604 0.524932,-0.23706 0.982131,-0.23706 0.812799,0 0.812799,0.8128 0,0.55879 -0.440266,0.99906 -0.423333,0.44027 -1.032931,0.762 -0.592666,0.32173 -1.236131,0.52493 -0.643466,0.2032 -1.066798,0.3048 -0.135467,0.254 -0.237066,0.64347 -0.08467,0.38946 -0.08467,0.6604 z"
         id="path14" />
    </g>
  </g>
</svg>
